<svg width="441" height="431" viewBox="0 0 441 431" fill="none" xmlns="http://www.w3.org/2000/svg">
<path d="M708.937 99.5308C667.109 212.546 625.804 251.617 551.942 303.128C478.081 354.639 410.161 313.945 341.136 232.447C272.11 150.949 296.796 67.9298 224.25 1.37171C151.704 -65.1865 68.2703 -126.437 128.206 -322.347C188.143 -518.256 282.049 -410.681 352.214 -538.089C422.378 -665.496 515.337 -579.895 578.197 -522.01C697.658 -412.004 612.222 -355.923 670.371 -211.351C728.52 -66.7779 750.765 -13.4844 708.937 99.5308Z" fill="black"/>
<path d="M113.63 -254.341C82.243 -205.51 74.4353 -156.87 74.3045 -111.951C74.1737 -67.0332 100.358 -15.4362 143.912 15.4695C187.465 46.3753 211.796 14.5317 250.776 50.5532C289.757 86.5748 329.145 130.838 386.206 54.5721C443.266 -21.6938 385.188 -64.3513 415.719 -134.738C446.251 -205.125 358.675 -211.576 324.823 -242.749C260.49 -301.99 290.655 -317.505 244.823 -342.817C198.99 -368.128 145.017 -303.171 113.63 -254.341Z" fill="#3822EB"/>
<path d="M149.194 -306.672C119.018 -265.514 113.157 -234.366 108.735 -181.069C104.314 -127.773 127.026 -86.7518 165.68 -53.9141C204.333 -21.0764 215.768 -22.51 259.986 0.592687C304.203 23.6954 334.65 98.4368 389.1 35.0151C443.551 -28.4065 399.984 -81.7496 430.084 -142.651C460.185 -203.553 409.624 -236.199 350.126 -240.822C290.628 -245.444 294.965 -370.556 244.907 -374.415C194.85 -378.274 179.37 -347.83 149.194 -306.672Z" stroke="white" stroke-width="4" stroke-linecap="round" stroke-linejoin="round" stroke-dasharray="5 8"/>
</svg>
