<svg width="355" height="61" viewBox="0 0 355 61" fill="none" xmlns="http://www.w3.org/2000/svg">
<path d="M63.1006 33.6189H37.4601C36.3233 33.6189 35.27 34.229 34.7038 35.2165L26.9309 48.818C26.8387 48.976 26.6719 49.077 26.4876 49.077H25.7897C24.0692 49.077 22.476 48.1597 21.6158 46.6674L21.3876 46.2724C21.2954 46.1144 21.2954 45.9213 21.3876 45.7633L29.1868 32.0608C29.7486 31.0821 29.7486 29.8795 29.1868 28.8964L21.3305 15.229C21.2383 15.071 21.2383 14.8779 21.3305 14.7199L21.6158 14.224C22.4717 12.7405 24.0561 11.8276 25.7678 11.8276H26.2286C26.4086 11.8276 26.5754 11.9241 26.6675 12.0778L34.6599 25.6661C35.2261 26.6536 36.2794 27.2637 37.4162 27.2637H63.1006C64.7903 27.2637 65.8481 25.4335 65.001 23.9719L53.5238 4.11611L53.5018 4.0766C53.4887 4.05465 53.4755 4.03273 53.4623 4.01078C53.3351 3.79572 53.199 3.58942 53.0542 3.39192C51.5926 1.38615 49.2401 0.17041 46.7296 0.17041H20.7731C20.4571 0.17041 20.1411 0.192362 19.8295 0.231863C17.692 0.486424 15.7433 1.63633 14.4749 3.37876C14.3125 3.59821 14.1589 3.83083 14.0228 4.06784L1.04458 26.5483C0.434513 27.6016 0.0921726 28.7647 0.0175597 29.941C0.00878174 30.1077 0 30.2789 0 30.4457C0 31.7931 0.346733 33.1361 1.04458 34.3431L14.0228 56.8236C14.2028 57.1352 14.4047 57.4336 14.6197 57.7101C15.9759 59.4569 18.0168 60.5673 20.242 60.721C20.4176 60.7341 20.5975 60.7385 20.7731 60.7385H20.8214H46.7033C47.3353 60.7385 47.9542 60.6595 48.5511 60.5147C50.2715 60.0977 51.8209 59.097 52.9137 57.6882C53.1156 57.4292 53.2999 57.1571 53.4667 56.8718C53.4799 56.8499 53.4931 56.8323 53.5062 56.8104L53.515 56.7928L65.0054 36.9151C65.8481 35.4491 64.7903 33.6189 63.1006 33.6189Z" fill="url(#paint0_linear)"/>
<g opacity="0.25">
<path opacity="0.25" d="M63.1006 33.6189H37.4601C36.3233 33.6189 35.27 34.229 34.7038 35.2165L26.9309 48.818C26.8387 48.976 26.6719 49.077 26.4876 49.077H25.7897C24.0692 49.077 22.476 48.1597 21.6158 46.6674L21.3876 46.2724C21.2954 46.1144 21.2954 45.9213 21.3876 45.7633L29.1868 32.0608C29.7486 31.0821 29.7486 29.8795 29.1868 28.8964L21.3305 15.229C21.2383 15.071 21.2383 14.8779 21.3305 14.7199L21.6158 14.224C22.4717 12.7405 24.0561 11.8276 25.7678 11.8276H26.2286C26.4086 11.8276 26.5754 11.9241 26.6675 12.0778L34.6599 25.6661C35.2261 26.6536 36.2794 27.2637 37.4162 27.2637H63.1006C64.7903 27.2637 65.8481 25.4335 65.001 23.9719L53.5238 4.11611L53.5018 4.0766C53.4887 4.05465 53.4755 4.03273 53.4623 4.01078C53.3351 3.79572 53.199 3.58942 53.0542 3.39192C51.5926 1.38615 49.2401 0.17041 46.7296 0.17041H20.7731C20.4571 0.17041 20.1411 0.192362 19.8295 0.231863C17.692 0.486424 15.7433 1.63633 14.4749 3.37876C14.3125 3.59821 14.1589 3.83083 14.0228 4.06784L1.04458 26.5483C0.434513 27.6016 0.0921726 28.7647 0.0175597 29.941C0.00878174 30.1077 0 30.2789 0 30.4457C0 31.7931 0.346733 33.1361 1.04458 34.3431L14.0228 56.8236C14.2028 57.1352 14.4047 57.4336 14.6197 57.7101C15.9759 59.4569 18.0168 60.5673 20.242 60.721C20.4176 60.7341 20.5975 60.7385 20.7731 60.7385H20.8214H46.7033C47.3353 60.7385 47.9542 60.6595 48.5511 60.5147C50.2715 60.0977 51.8209 59.097 52.9137 57.6882C53.1156 57.4292 53.2999 57.1571 53.4667 56.8718C53.4799 56.8499 53.4931 56.8323 53.5062 56.8104L53.515 56.7928L65.0054 36.9151C65.8481 35.4491 64.7903 33.6189 63.1006 33.6189Z" fill="#FF0BD1"/>
</g>
<path d="M93.794 17.4455C97.8187 17.4455 101.457 19.5873 103.884 22.5806L108.581 18.6086C104.477 13.5525 98.9291 11.4106 93.794 11.4106C81.6409 11.4106 74.8555 20.0306 74.8555 30.7398C74.8555 43.0465 83.5764 49.7046 93.794 49.7046C100.399 49.7046 105.355 46.6367 108.581 42.5813L103.884 38.5829C101.51 41.5499 98.025 43.6917 93.794 43.6917C86.6443 43.6917 81.5092 38.4293 81.5092 30.7398C81.5136 22.7606 86.517 17.4455 93.794 17.4455Z" fill="#2F0B47"/>
<path d="M124.693 23.1995C121.546 23.1995 118.68 24.7225 116.67 27.4568H116.591V23.5857H110.683V49.3623H116.591V37.1301C116.591 32.9518 119.145 29.7259 123.635 29.7259C124.048 29.7259 124.745 29.7523 125.417 29.8049V23.2258C125.206 23.1995 124.947 23.1995 124.693 23.1995Z" fill="#2F0B47"/>
<path d="M140.436 40.9793H140.383L133.264 23.5857H127.045L137.521 47.9183L132.874 59.8169H139.093L153.26 23.5857H147.067L140.436 40.9793Z" fill="#2F0B47"/>
<path d="M169.104 23.1995C165.698 23.1995 162.885 24.4108 160.923 26.7107H160.818V23.5901H154.915V59.8168H160.822V46.1934H160.901C162.784 48.4889 165.545 49.7792 169.056 49.7792C176.201 49.7792 181.543 44.5651 181.543 36.5947C181.543 28.7998 176.201 23.1995 169.104 23.1995ZM168.125 44.4115C163.921 44.4115 160.59 41.2909 160.59 36.6166C160.59 32.0477 163.662 28.5672 168.099 28.5672C172.229 28.5672 175.53 31.6658 175.53 36.6166C175.53 41.1856 172.488 44.4115 168.125 44.4115Z" fill="#2F0B47"/>
<path d="M193.596 44.2579C191.946 44.2579 191.12 43.3011 191.12 40.6721V28.6199H198.709V23.5901H191.12V14.3776H185.213V23.5901H182.066V28.6199H185.213V41.212C185.213 46.9659 187.974 49.7793 192.411 49.7793C195.79 49.7793 197.419 49.0814 198.964 48.2563L197.414 43.1475C196.049 43.8673 194.601 44.2579 193.596 44.2579Z" fill="#2F0B47"/>
<path d="M212.963 23.1995C204.809 23.1995 199.415 28.9008 199.415 36.5157C199.415 44.0779 204.809 49.7792 212.963 49.7792C220.859 49.7792 226.486 44.3588 226.486 36.5157C226.486 28.6199 220.859 23.1995 212.963 23.1995ZM212.963 44.4115C208.526 44.4115 205.427 40.9266 205.427 36.5157C205.427 32.0257 208.447 28.5672 212.963 28.5672C217.194 28.5672 220.473 31.7931 220.473 36.5157C220.473 41.1592 217.146 44.4115 212.963 44.4115Z" fill="#2F0B47"/>
<path d="M247.69 34.2948H247.584L235.198 11.8188H228.799V49.3666H235.172V24.2045H235.251L245.521 42.1424H249.7L259.97 24.2045H260.049V49.3666H266.422V11.8188H260.023L247.69 34.2948Z" fill="#2F0B47"/>
<path d="M282.284 23.1995C274.129 23.1995 268.735 28.9008 268.735 36.5157C268.735 44.0779 274.129 49.7792 282.284 49.7792C290.179 49.7792 295.806 44.3588 295.806 36.5157C295.802 28.6199 290.179 23.1995 282.284 23.1995ZM282.284 44.4115C277.846 44.4115 274.748 40.9266 274.748 36.5157C274.748 32.0257 277.767 28.5672 282.284 28.5672C286.515 28.5672 289.793 31.7931 289.793 36.5157C289.789 41.1592 286.462 44.4115 282.284 44.4115Z" fill="#2F0B47"/>
<path d="M311.695 23.1995C303.54 23.1995 298.146 28.9008 298.146 36.5157C298.146 44.0779 303.54 49.7792 311.695 49.7792C319.591 49.7792 325.217 44.3588 325.217 36.5157C325.217 28.6199 319.591 23.1995 311.695 23.1995ZM311.695 44.4115C307.258 44.4115 304.159 40.9266 304.159 36.5157C304.159 32.0257 307.179 28.5672 311.695 28.5672C315.926 28.5672 319.204 31.7931 319.204 36.5157C319.204 41.1592 315.873 44.4115 311.695 44.4115Z" fill="#2F0B47"/>
<path d="M348.255 26.6843H348.128C346.192 24.3889 343.353 23.1994 339.973 23.1994C332.876 23.1994 327.535 28.7998 327.535 36.5903C327.535 44.5651 332.876 49.7748 340.026 49.7748C343.691 49.7748 346.53 48.3835 348.413 45.9037H348.518V49.3623H354.172V11.8188H348.264V26.6843H348.255ZM340.952 44.4115C336.589 44.4115 333.548 41.1855 333.548 36.621C333.548 31.6658 336.853 28.5716 340.978 28.5716C345.415 28.5716 348.488 32.0564 348.488 36.621C348.488 41.2865 345.157 44.4115 340.952 44.4115Z" fill="#2F0B47"/>
<defs>
<linearGradient id="paint0_linear" x1="17.2209" y1="60.9742" x2="49.6223" y2="0.987911" gradientUnits="userSpaceOnUse">
<stop stop-color="#FF009E"/>
<stop offset="1" stop-color="#FF8820"/>
</linearGradient>
</defs>
</svg>
