<svg width="147" height="43" viewBox="0 0 147 43" fill="none" xmlns="http://www.w3.org/2000/svg">
<path d="M32.3478 22.8435H25.4606C24.8997 22.6705 24.2764 22.1085 24.3076 21.2005C24.3387 20.3357 24.9932 19.8601 25.523 19.7304C25.523 19.7304 25.523 19.7304 25.4918 19.6872H31.3194C32.0674 19.6872 32.7218 18.8224 32.7218 17.7415C32.7218 16.7038 32.0985 15.7958 31.3194 15.7958H27.6421C27.6421 15.7958 27.6421 15.7958 27.6733 15.7526C27.1123 15.5796 26.489 15.0176 26.5202 14.1096C26.5514 13.2448 27.2058 12.7692 27.7356 12.6395H28.2654C29.0133 12.6395 29.6678 11.7748 29.6678 10.6938C29.6678 9.65614 29.0445 8.74816 28.2654 8.74816H24.7439L24.775 8.70493C24.2141 8.53198 23.5908 7.96989 23.622 7.06191C23.6531 6.19717 24.3076 5.72156 24.8374 5.59185L24.8062 5.54861C25.5541 5.46214 26.1462 4.55416 26.1151 3.51646C26.1462 2.52201 25.523 1.7005 24.775 1.7005H20.5991C19.8511 1.7005 19.2279 2.56524 19.1967 3.60294C19.1655 4.64063 19.7888 5.54861 20.5679 5.59185C21.16 5.67832 21.9079 6.19717 21.9391 7.14839C21.9703 8.09961 21.2535 8.61845 20.6614 8.74816H20.5991C19.8511 8.74816 19.1967 9.61291 19.1967 10.6938C19.1967 11.7315 19.82 12.6395 20.5991 12.6395H23.4973C24.0583 12.7692 24.775 13.2881 24.8062 14.1528C24.8374 15.0608 24.1517 15.6229 23.5596 15.7526H20.5991C19.8511 15.7526 19.1967 16.6173 19.1967 17.6983C19.1967 18.736 19.82 19.6439 20.5991 19.6439H21.1912C21.7521 19.7304 22.4689 20.206 22.5624 21.114C22.6247 22.022 21.9391 22.6273 21.3782 22.8003H20.5991C19.8511 22.8003 19.1967 23.665 19.1967 24.7459C19.1967 25.7836 19.82 26.6916 20.5991 26.6916H23.1233C23.6531 26.8213 24.2452 27.2969 24.3076 28.1184C24.3699 28.9399 23.8089 29.5453 23.2792 29.7182H20.5679C19.82 29.7182 19.1655 30.583 19.1655 31.6639C19.1655 32.7016 19.7888 33.6096 20.5679 33.6096H20.5991C21.16 33.7393 21.8145 34.2149 21.8768 35.0796C21.9391 35.9876 21.2535 36.5497 20.6926 36.7226H20.5679C19.82 36.7226 19.1655 37.5874 19.1655 38.6683C19.1655 39.706 19.7888 40.614 20.5679 40.614H24.7439C25.4918 40.614 26.1462 39.7492 26.1462 38.6683C26.1462 37.6306 25.523 36.7226 24.7439 36.7226C24.1829 36.5497 23.5596 35.9876 23.5908 35.0796C23.622 34.2149 24.2764 33.7393 24.8062 33.6096H27.9849C28.7328 33.6096 29.3873 32.7448 29.3873 31.6639C29.3873 30.6262 28.764 29.7182 27.9849 29.7182H27.05C26.5514 29.502 25.9904 28.9399 26.0216 28.1184C26.0527 27.2969 26.676 26.8213 27.2058 26.6484H32.3167C33.0646 26.6484 33.7191 25.7836 33.7191 24.7027C33.7502 23.7082 33.0958 22.8435 32.3478 22.8435Z" fill="url(#paint0_linear)"/>
<path d="M14.5223 5.67834H14.7716C15.5195 5.67834 16.174 4.81359 16.174 3.73266C16.174 2.69497 15.5507 1.78699 14.7716 1.78699H10.5956C9.91002 1.78699 9.31791 2.52202 9.19325 3.43C9.09976 4.38122 9.53606 5.33244 10.2217 5.59186C10.2217 5.59186 10.2217 5.59186 10.1905 5.6351C10.7826 5.72157 11.4994 6.24042 11.5617 7.1484C11.5929 8.05638 10.9384 8.61846 10.3463 8.79141H7.22993C6.482 8.79141 5.82756 9.65616 5.82756 10.7371C5.82756 11.7748 6.45083 12.6828 7.22993 12.6828H7.72855C8.2895 12.8125 8.94394 13.2881 9.00627 14.1528C9.0686 15.0608 8.38299 15.6229 7.82204 15.7958H3.95772C3.20979 15.7958 2.55535 16.6606 2.55535 17.7415C2.55535 18.7792 3.17863 19.6872 3.95772 19.6872H9.66071C10.2217 19.8169 10.9073 20.2925 10.9384 21.1573C11.0008 22.0652 10.3152 22.6273 9.7542 22.8003H2.96048C2.21255 22.8003 1.55811 23.665 1.55811 24.7459C1.55811 25.7836 2.18138 26.6916 2.96048 26.6916H8.22717C8.75696 26.8213 9.34907 27.2969 9.4114 28.1184C9.47373 28.9399 8.91278 29.5453 8.38299 29.7182H7.26109C6.51316 29.7182 5.85872 30.583 5.85872 31.6639C5.85872 32.7016 6.482 33.6096 7.26109 33.6096H10.3152C10.8761 33.7393 11.5929 34.2581 11.5929 35.1661C11.5929 36.0741 10.9073 36.6362 10.3152 36.7226C9.59838 36.8524 9.0686 37.8036 9.13093 38.8413C9.19325 39.8357 9.81653 40.614 10.5333 40.614H14.7093C15.4572 40.614 16.1116 39.7492 16.1116 38.6683C16.1116 37.6306 15.4884 36.7226 14.7093 36.7226H14.4911C13.9302 36.5497 13.3069 35.9876 13.338 35.0796C13.3692 34.2149 14.0237 33.7393 14.5534 33.6096H14.6781C15.426 33.6096 16.0805 32.7448 16.0805 31.6639C16.0805 30.6262 15.4572 29.7182 14.6781 29.7182H12.1538C11.6552 29.502 11.0943 28.9399 11.1254 28.1184C11.1566 27.2969 11.7799 26.8213 12.3096 26.6484H14.6781C15.426 26.6484 16.0805 25.7836 16.0805 24.7027C16.0805 23.665 15.4572 22.757 14.6781 22.757H13.8055C13.2446 22.5841 12.6213 22.022 12.6524 21.114C12.6836 20.2493 13.338 19.7737 13.8678 19.6439H14.6781C15.426 19.6439 16.0805 18.7792 16.0805 17.6983C16.0805 16.6606 15.4572 15.7526 14.6781 15.7526H11.8733C11.3124 15.5797 10.6891 15.0176 10.7203 14.1096C10.7514 13.2448 11.4059 12.7692 11.9357 12.6395H14.6469C15.3949 12.6395 16.0493 11.7748 16.0493 10.6938C16.0493 9.65616 15.426 8.74818 14.6469 8.74818H14.3976C13.8678 8.57523 13.2446 8.01314 13.2446 7.1484C13.3692 6.32689 13.9925 5.80805 14.5223 5.67834Z" fill="url(#paint1_linear)"/>
<path d="M45.437 14.1523H54.1006V16.66H50.7972V28.8962H48.7404V16.66H45.437V14.1523Z" fill="white"/>
<path d="M66.4416 25.5669C66.909 26.2155 67.5635 26.5614 68.3425 26.5614C69.1528 26.5614 69.7761 26.2155 70.2435 25.5669C70.711 24.9183 70.9292 24.0104 70.9292 22.843V14.1523H72.9548V22.843C72.9548 24.1401 72.7678 25.221 72.3939 26.1722C72.0199 27.1234 71.4901 27.8585 70.8045 28.3341C70.1189 28.8529 69.3086 29.1124 68.3425 29.1124C67.3765 29.1124 66.5662 28.8529 65.8494 28.3341C65.1327 27.8152 64.6029 27.1234 64.2289 26.1722C63.855 25.221 63.668 24.0968 63.668 22.843V14.1523H65.6936V22.843C65.7248 24.0104 65.9741 24.9183 66.4416 25.5669Z" fill="white"/>
<path d="M90.3752 28.8962L88.5365 24.5292C88.443 24.5292 88.3184 24.5292 88.1626 24.5292H85.763V28.8529H83.7373V14.1523H88.1626C89.5338 14.1523 90.5934 14.5847 91.3413 15.4926C92.0892 16.3574 92.4632 17.6113 92.4632 19.2543C92.4632 20.4217 92.2762 21.3729 91.9334 22.1944C91.5594 23.0159 91.0608 23.6212 90.3752 24.0104L92.7125 28.8962H90.3752ZM85.7318 22.0647H88.1314C88.9105 22.0647 89.5026 21.8485 89.8766 21.3729C90.2505 20.8973 90.4687 20.2055 90.4687 19.2975C90.4687 18.3895 90.2817 17.741 89.8766 17.2654C89.4715 16.833 88.8793 16.5736 88.1314 16.5736H85.7318V22.0647Z" fill="white"/>
<path d="M103.028 14.1523H105.053V28.8962H103.028V14.1523Z" fill="white"/>
<path d="M123.44 14.1523H125.403V28.8962H123.471L118.017 18.7354V28.8962H116.023V14.1523H117.955L123.44 24.313V14.1523Z" fill="white"/>
<path d="M143.572 21.5463H145.348V27.1672C144.787 27.7293 144.133 28.2049 143.385 28.5508C142.637 28.8967 141.889 29.0696 141.141 29.0696C140.113 29.0696 139.147 28.7237 138.305 28.0752C137.464 27.3834 136.778 26.4754 136.28 25.308C135.781 24.1406 135.532 22.8867 135.532 21.4599C135.532 20.0763 135.781 18.7792 136.28 17.655C136.778 16.5308 137.464 15.6228 138.336 14.931C139.209 14.2825 140.175 13.9366 141.235 13.9366C141.983 13.9366 142.731 14.1095 143.479 14.4987C144.226 14.8878 144.85 15.4067 145.38 16.0552L144.226 18.1306C143.821 17.6117 143.354 17.1794 142.824 16.8767C142.294 16.5741 141.765 16.4443 141.235 16.4443C140.58 16.4443 139.957 16.6605 139.396 17.0929C138.835 17.5253 138.399 18.1306 138.056 18.9089C137.744 19.6871 137.557 20.5086 137.557 21.4166C137.557 22.3246 137.713 23.1893 138.056 23.9676C138.399 24.7459 138.835 25.3512 139.396 25.7836C139.957 26.216 140.58 26.4754 141.235 26.4754C141.609 26.4754 141.983 26.3889 142.388 26.216C142.793 26.043 143.167 25.8268 143.541 25.5242V21.5463H143.572Z" fill="white"/>
<path d="M32.3478 22.8435H25.4606C24.8997 22.6705 24.2764 22.1085 24.3076 21.2005C24.3387 20.3357 24.9932 19.8601 25.523 19.7304C25.523 19.7304 25.523 19.7304 25.4918 19.6872H31.3194C32.0674 19.6872 32.7218 18.8224 32.7218 17.7415C32.7218 16.7038 32.0985 15.7958 31.3194 15.7958H27.6421C27.6421 15.7958 27.6421 15.7958 27.6733 15.7526C27.1123 15.5796 26.489 15.0176 26.5202 14.1096C26.5514 13.2448 27.2058 12.7692 27.7356 12.6395H28.2654C29.0133 12.6395 29.6678 11.7748 29.6678 10.6938C29.6678 9.65614 29.0445 8.74816 28.2654 8.74816H24.7439L24.775 8.70493C24.2141 8.53198 23.5908 7.96989 23.622 7.06191C23.6531 6.19717 24.3076 5.72156 24.8374 5.59185L24.8062 5.54861C25.5541 5.46214 26.1462 4.55416 26.1151 3.51646C26.1462 2.52201 25.523 1.7005 24.775 1.7005H20.5991C19.8511 1.7005 19.2279 2.56524 19.1967 3.60294C19.1655 4.64063 19.7888 5.54861 20.5679 5.59185C21.16 5.67832 21.9079 6.19717 21.9391 7.14839C21.9703 8.09961 21.2535 8.61845 20.6614 8.74816H20.5991C19.8511 8.74816 19.1967 9.61291 19.1967 10.6938C19.1967 11.7315 19.82 12.6395 20.5991 12.6395H23.4973C24.0583 12.7692 24.775 13.2881 24.8062 14.1528C24.8374 15.0608 24.1517 15.6229 23.5596 15.7526H20.5991C19.8511 15.7526 19.1967 16.6173 19.1967 17.6983C19.1967 18.736 19.82 19.6439 20.5991 19.6439H21.1912C21.7521 19.7304 22.4689 20.206 22.5624 21.114C22.6247 22.022 21.9391 22.6273 21.3782 22.8003H20.5991C19.8511 22.8003 19.1967 23.665 19.1967 24.7459C19.1967 25.7836 19.82 26.6916 20.5991 26.6916H23.1233C23.6531 26.8213 24.2452 27.2969 24.3076 28.1184C24.3699 28.9399 23.8089 29.5453 23.2792 29.7182H20.5679C19.82 29.7182 19.1655 30.583 19.1655 31.6639C19.1655 32.7016 19.7888 33.6096 20.5679 33.6096H20.5991C21.16 33.7393 21.8145 34.2149 21.8768 35.0796C21.9391 35.9876 21.2535 36.5497 20.6926 36.7226H20.5679C19.82 36.7226 19.1655 37.5874 19.1655 38.6683C19.1655 39.706 19.7888 40.614 20.5679 40.614H24.7439C25.4918 40.614 26.1462 39.7492 26.1462 38.6683C26.1462 37.6306 25.523 36.7226 24.7439 36.7226C24.1829 36.5497 23.5596 35.9876 23.5908 35.0796C23.622 34.2149 24.2764 33.7393 24.8062 33.6096H27.9849C28.7328 33.6096 29.3873 32.7448 29.3873 31.6639C29.3873 30.6262 28.764 29.7182 27.9849 29.7182H27.05C26.5514 29.502 25.9904 28.9399 26.0216 28.1184C26.0527 27.2969 26.676 26.8213 27.2058 26.6484H32.3167C33.0646 26.6484 33.7191 25.7836 33.7191 24.7027C33.7502 23.7082 33.0958 22.8435 32.3478 22.8435Z" fill="url(#paint2_linear)"/>
<path d="M14.5223 5.67834H14.7716C15.5195 5.67834 16.174 4.81359 16.174 3.73266C16.174 2.69497 15.5507 1.78699 14.7716 1.78699H10.5956C9.91002 1.78699 9.31791 2.52202 9.19325 3.43C9.09976 4.38122 9.53606 5.33244 10.2217 5.59186C10.2217 5.59186 10.2217 5.59186 10.1905 5.6351C10.7826 5.72157 11.4994 6.24042 11.5617 7.1484C11.5929 8.05638 10.9384 8.61846 10.3463 8.79141H7.22993C6.482 8.79141 5.82756 9.65616 5.82756 10.7371C5.82756 11.7748 6.45083 12.6828 7.22993 12.6828H7.72855C8.2895 12.8125 8.94394 13.2881 9.00627 14.1528C9.0686 15.0608 8.38299 15.6229 7.82204 15.7958H3.95772C3.20979 15.7958 2.55535 16.6606 2.55535 17.7415C2.55535 18.7792 3.17863 19.6872 3.95772 19.6872H9.66071C10.2217 19.8169 10.9073 20.2925 10.9384 21.1573C11.0008 22.0652 10.3152 22.6273 9.7542 22.8003H2.96048C2.21255 22.8003 1.55811 23.665 1.55811 24.7459C1.55811 25.7836 2.18138 26.6916 2.96048 26.6916H8.22717C8.75696 26.8213 9.34907 27.2969 9.4114 28.1184C9.47373 28.9399 8.91278 29.5453 8.38299 29.7182H7.26109C6.51316 29.7182 5.85872 30.583 5.85872 31.6639C5.85872 32.7016 6.482 33.6096 7.26109 33.6096H10.3152C10.8761 33.7393 11.5929 34.2581 11.5929 35.1661C11.5929 36.0741 10.9073 36.6362 10.3152 36.7226C9.59838 36.8524 9.0686 37.8036 9.13093 38.8413C9.19325 39.8357 9.81653 40.614 10.5333 40.614H14.7093C15.4572 40.614 16.1116 39.7492 16.1116 38.6683C16.1116 37.6306 15.4884 36.7226 14.7093 36.7226H14.4911C13.9302 36.5497 13.3069 35.9876 13.338 35.0796C13.3692 34.2149 14.0237 33.7393 14.5534 33.6096H14.6781C15.426 33.6096 16.0805 32.7448 16.0805 31.6639C16.0805 30.6262 15.4572 29.7182 14.6781 29.7182H12.1538C11.6552 29.502 11.0943 28.9399 11.1254 28.1184C11.1566 27.2969 11.7799 26.8213 12.3096 26.6484H14.6781C15.426 26.6484 16.0805 25.7836 16.0805 24.7027C16.0805 23.665 15.4572 22.757 14.6781 22.757H13.8055C13.2446 22.5841 12.6213 22.022 12.6524 21.114C12.6836 20.2493 13.338 19.7737 13.8678 19.6439H14.6781C15.426 19.6439 16.0805 18.7792 16.0805 17.6983C16.0805 16.6606 15.4572 15.7526 14.6781 15.7526H11.8733C11.3124 15.5797 10.6891 15.0176 10.7203 14.1096C10.7514 13.2448 11.4059 12.7692 11.9357 12.6395H14.6469C15.3949 12.6395 16.0493 11.7748 16.0493 10.6938C16.0493 9.65616 15.426 8.74818 14.6469 8.74818H14.3976C13.8678 8.57523 13.2446 8.01314 13.2446 7.1484C13.3692 6.32689 13.9925 5.80805 14.5223 5.67834Z" fill="url(#paint3_linear)"/>
<path d="M45.437 14.1523H54.1006V16.66H50.7972V28.8962H48.7404V16.66H45.437V14.1523Z" fill="#383838"/>
<path d="M66.4416 25.5669C66.909 26.2155 67.5635 26.5614 68.3425 26.5614C69.1528 26.5614 69.7761 26.2155 70.2435 25.5669C70.711 24.9183 70.9292 24.0104 70.9292 22.843V14.1523H72.9548V22.843C72.9548 24.1401 72.7678 25.221 72.3939 26.1722C72.0199 27.1234 71.4901 27.8585 70.8045 28.3341C70.1189 28.8529 69.3086 29.1124 68.3425 29.1124C67.3765 29.1124 66.5662 28.8529 65.8494 28.3341C65.1327 27.8152 64.6029 27.1234 64.2289 26.1722C63.855 25.221 63.668 24.0968 63.668 22.843V14.1523H65.6936V22.843C65.7248 24.0104 65.9741 24.9183 66.4416 25.5669Z" fill="#383838"/>
<path d="M90.3752 28.8962L88.5365 24.5292C88.443 24.5292 88.3184 24.5292 88.1626 24.5292H85.763V28.8529H83.7373V14.1523H88.1626C89.5338 14.1523 90.5934 14.5847 91.3413 15.4926C92.0892 16.3574 92.4632 17.6113 92.4632 19.2543C92.4632 20.4217 92.2762 21.3729 91.9334 22.1944C91.5594 23.0159 91.0608 23.6212 90.3752 24.0104L92.7125 28.8962H90.3752ZM85.7318 22.0647H88.1314C88.9105 22.0647 89.5026 21.8485 89.8766 21.3729C90.2505 20.8973 90.4687 20.2055 90.4687 19.2975C90.4687 18.3895 90.2817 17.741 89.8766 17.2654C89.4715 16.833 88.8793 16.5736 88.1314 16.5736H85.7318V22.0647Z" fill="#383838"/>
<path d="M103.028 14.1523H105.053V28.8962H103.028V14.1523Z" fill="#383838"/>
<path d="M123.44 14.1523H125.403V28.8962H123.471L118.017 18.7354V28.8962H116.023V14.1523H117.955L123.44 24.313V14.1523Z" fill="#383838"/>
<path d="M143.572 21.5463H145.348V27.1672C144.787 27.7293 144.133 28.2049 143.385 28.5508C142.637 28.8967 141.889 29.0696 141.141 29.0696C140.113 29.0696 139.147 28.7237 138.305 28.0752C137.464 27.3834 136.778 26.4754 136.28 25.308C135.781 24.1406 135.532 22.8867 135.532 21.4599C135.532 20.0763 135.781 18.7792 136.28 17.655C136.778 16.5308 137.464 15.6228 138.336 14.931C139.209 14.2825 140.175 13.9366 141.235 13.9366C141.983 13.9366 142.731 14.1095 143.479 14.4987C144.226 14.8878 144.85 15.4067 145.38 16.0552L144.226 18.1306C143.821 17.6117 143.354 17.1794 142.824 16.8767C142.294 16.5741 141.765 16.4443 141.235 16.4443C140.58 16.4443 139.957 16.6605 139.396 17.0929C138.835 17.5253 138.399 18.1306 138.056 18.9089C137.744 19.6871 137.557 20.5086 137.557 21.4166C137.557 22.3246 137.713 23.1893 138.056 23.9676C138.399 24.7459 138.835 25.3512 139.396 25.7836C139.957 26.216 140.58 26.4754 141.235 26.4754C141.609 26.4754 141.983 26.3889 142.388 26.216C142.793 26.043 143.167 25.8268 143.541 25.5242V21.5463H143.572Z" fill="#383838"/>
<defs>
<linearGradient id="paint0_linear" x1="14.3269" y1="32.7446" x2="36.3175" y2="16.8945" gradientUnits="userSpaceOnUse">
<stop stop-color="#163BA9"/>
<stop offset="1" stop-color="#74E6D7"/>
</linearGradient>
<linearGradient id="paint1_linear" x1="4.32882" y1="32.7456" x2="26.2651" y2="16.9347" gradientUnits="userSpaceOnUse">
<stop stop-color="#163BA9"/>
<stop offset="1" stop-color="#74E6D7"/>
</linearGradient>
<linearGradient id="paint2_linear" x1="14.3269" y1="32.7446" x2="36.3175" y2="16.8945" gradientUnits="userSpaceOnUse">
<stop stop-color="#163BA9"/>
<stop offset="1" stop-color="#74E6D7"/>
</linearGradient>
<linearGradient id="paint3_linear" x1="4.32882" y1="32.7456" x2="26.2651" y2="16.9347" gradientUnits="userSpaceOnUse">
<stop stop-color="#163BA9"/>
<stop offset="1" stop-color="#74E6D7"/>
</linearGradient>
</defs>
</svg>
